<svg width="350" height="64" viewBox="0 0 350 64" fill="none" xmlns="http://www.w3.org/2000/svg">
<g clip-path="url(#clip0_1_2)">
<path d="M31.8182 63.6364C49.3914 63.6364 63.6364 49.3914 63.6364 31.8182V9.54545C63.6364 7.01384 62.6307 4.58592 60.8406 2.7958C59.0504 1.00568 56.6225 0 54.0909 0L33.4091 0V13.9586C33.4091 17.1436 33.6032 20.4432 35.2736 23.1541C36.4695 25.0969 38.0693 26.7598 39.9644 28.0299C41.8595 29.3 44.0057 30.1476 46.2573 30.5152L46.8666 30.6139C47.1178 30.6997 47.3359 30.862 47.4903 31.0779C47.6447 31.2939 47.7277 31.5527 47.7277 31.8182C47.7277 32.0836 47.6447 32.3425 47.4903 32.5584C47.3359 32.7744 47.1178 32.9366 46.8666 33.0225L46.2573 33.1211C42.9675 33.6585 39.9297 35.2157 37.5727 37.5727C35.2157 39.9297 33.6585 42.9675 33.1211 46.2573L33.0225 46.8666C32.9366 47.1178 32.7744 47.3359 32.5584 47.4903C32.3425 47.6447 32.0836 47.7277 31.8182 47.7277C31.5527 47.7277 31.2939 47.6447 31.0779 47.4903C30.862 47.3359 30.6997 47.1178 30.6139 46.8666L30.5152 46.2573C30.1475 44.0057 29.2999 41.8596 28.0298 39.9645C26.7597 38.0694 25.0969 36.4696 23.1541 35.2736C20.4432 33.6032 17.1436 33.4091 13.9586 33.4091H0.0381775C0.870223 50.2425 14.7795 63.6364 31.8182 63.6364Z" fill="#0E1534"/>
<path d="M0 30.2273H13.9586C17.1436 30.2273 20.4432 30.0332 23.1541 28.3627C25.2732 27.0571 27.0571 25.2732 28.3627 23.1541C30.0332 20.4432 30.2273 17.1436 30.2273 13.9586V0H9.54545C7.01384 0 4.58592 1.00568 2.7958 2.7958C1.00568 4.58592 0 7.01384 0 9.54545L0 30.2273ZM73.9057 3.18182C73.9057 4.02569 73.5705 4.835 72.9737 5.4317C72.377 6.02841 71.5677 6.36364 70.7239 6.36364C69.88 6.36364 69.0707 6.02841 68.474 5.4317C67.8773 4.835 67.542 4.02569 67.542 3.18182C67.542 2.33795 67.8773 1.52864 68.474 0.931933C69.0707 0.335226 69.88 0 70.7239 0C71.5677 0 72.377 0.335226 72.9737 0.931933C73.5705 1.52864 73.9057 2.33795 73.9057 3.18182ZM336.813 19.2564C345.708 19.2564 350 25.4689 350 32.6645V46.1793H340.692V34.2682C340.692 31.0068 339.502 28.315 336.089 28.315C332.677 28.315 331.539 31.0068 331.539 34.2682V46.1777H322.231V34.2682C322.231 31.0068 321.093 28.315 317.679 28.315C314.267 28.315 313.077 31.0068 313.077 34.2682V46.1777H303.77V32.663C303.77 25.4673 308.06 19.2548 316.955 19.2548C321.817 19.2548 325.333 21.1702 326.937 24.3282C328.642 21.1702 332.366 19.2532 336.813 19.2532V19.2564ZM287.043 37.8954C290.042 37.8954 291.335 35.1511 291.335 31.8882V20.2905H300.642V33.0273C300.642 40.6382 296.195 46.9557 287.043 46.9557C277.889 46.9557 273.442 40.6398 273.442 33.0273V20.2905H282.751V31.8882C282.751 35.1495 284.043 37.8954 287.043 37.8954ZM259.756 47.0066C253.912 47.0066 250.137 44.9877 247.913 41.0534L254.636 37.2734C255.567 38.9295 256.962 39.7584 259.29 39.7584C261.203 39.7584 262.082 39.0855 262.082 38.2566C262.082 35.0986 248.43 38.3091 248.43 28.2657C248.43 23.3975 252.566 19.4632 259.6 19.4632C265.753 19.4632 269.115 22.4652 270.615 25.3655L263.892 29.1964C263.324 27.6436 261.565 26.7114 259.807 26.7114C258.462 26.7114 257.738 27.2809 257.738 28.0573C257.738 31.2677 271.39 28.3166 271.39 38.0498C271.39 43.4859 266.064 47.0066 259.756 47.0066ZM227.234 58.0873H217.926V33.1832C217.926 25.2605 223.873 19.5141 232.147 19.5141C240.215 19.5141 246.368 25.6757 246.368 33.1832C246.368 41.467 240.886 46.9557 232.664 46.9557C230.75 46.9557 228.838 46.3861 227.234 45.5048V58.0873ZM232.147 38.2057C235.095 38.2057 237.06 35.9275 237.06 33.2341C237.06 30.4914 235.095 28.2641 232.147 28.2641C229.199 28.2641 227.234 30.4914 227.234 33.2357C227.234 35.9275 229.199 38.2057 232.147 38.2057ZM208.602 17.5477C205.55 17.5477 203.018 15.0102 203.018 11.9557C203.018 8.90114 205.55 6.36364 208.602 6.36364C211.653 6.36364 214.187 8.90114 214.187 11.9557C214.187 15.0102 211.653 17.5477 208.602 17.5477ZM203.948 20.2905H213.257V46.1793H203.948V20.2905ZM186.089 46.9557C178.021 46.9557 171.868 40.7432 171.868 33.1832C171.868 25.6757 178.021 19.4632 186.089 19.4632C194.156 19.4632 200.31 25.6757 200.31 33.1832C200.31 40.7432 194.156 46.9557 186.089 46.9557ZM186.089 38.2057C189.037 38.2057 191.001 35.9275 191.001 33.2341C191.001 30.4914 189.037 28.2132 186.089 28.2132C183.141 28.2132 181.176 30.4914 181.176 33.2341C181.176 35.9275 183.141 38.2057 186.089 38.2057ZM154.291 58.8636C147.88 58.8636 143.225 56.0159 140.846 50.9409L148.551 46.7998C149.378 48.5609 150.93 50.3729 154.135 50.3729C157.498 50.3729 159.721 48.2491 159.98 44.5216C158.739 45.6098 156.773 46.437 153.827 46.437C146.637 46.437 140.845 40.8975 140.845 33.1307C140.845 25.6248 147 19.5141 155.068 19.5141C163.342 19.5141 169.289 25.262 169.289 33.1832V43.435C169.289 52.7545 162.823 58.8636 154.291 58.8636ZM154.912 37.6886C157.704 37.6886 159.824 35.7716 159.824 32.9239C159.824 30.1286 157.705 28.2641 154.912 28.2641C152.17 28.2641 149.999 30.1286 149.999 32.9254C149.999 35.7732 152.17 37.687 154.912 37.687V37.6886ZM125.057 46.9557C116.989 46.9557 110.834 40.7432 110.834 33.1832C110.834 25.6757 116.989 19.4632 125.057 19.4632C133.123 19.4632 139.278 25.6757 139.278 33.1832C139.278 40.7432 133.124 46.9557 125.057 46.9557ZM125.057 38.2057C128.005 38.2057 129.969 35.9275 129.969 33.2341C129.969 30.4914 128.005 28.2132 125.057 28.2132C122.109 28.2132 120.144 30.4914 120.144 33.2341C120.144 35.9275 122.109 38.2057 125.057 38.2057ZM93.8843 11.2318V37.3768H109.295V46.1793H92.5909C86.6966 46.1793 84.3182 43.0723 84.3182 38.1532V11.2318H93.8843Z" fill="#0E1534"/>
</g>
<defs>
<clipPath id="clip0_1_2">
<rect width="350" height="63.6364" fill="white"/>
</clipPath>
</defs>
</svg>
